# xmcd
#
# Track frame offsets:
#	150
#	19803
#	32950
#	56229
#	75650
#	100503
#	122932
#	140980
#	163592
#	180794
#	201262
#	225822
#
# Disc length: 3330 seconds
#
# Revision: 1
# Processed by: cddbd v1.5.2PL0 Copyright (c) Steve Scherf et al.
# Submitted via: audiograbber 1.83.01
#
DISCID=990d000c
DTITLE=Johnny Nicholas - Livin' With The Blues
DYEAR=2005
DGENRE=Blues
TTITLE0=Froggy Bottom
TTITLE1=Hill Top
TTITLE2=You Can't Be Lucky All The Time
TTITLE3=I'll Be Around
TTITLE4=Dirty People
TTITLE5=Teardrops On My Window Pane
TTITLE6=Livin' With The Blues
TTITLE7=Need Your Love So Bad
TTITLE8=Honeydrippin' Baby
TTITLE9=Texas Drifter
TTITLE10=I'm From Texas
TTITLE11=Down In The Alley
EXTD=
EXTT0=
EXTT1=
EXTT2=
EXTT3=
EXTT4=
EXTT5=
EXTT6=
EXTT7=
EXTT8=
EXTT9=
EXTT10=
EXTT11=
PLAYORDER=
